<svg xmlns="http://www.w3.org/2000/svg" viewBox="0 0 100 73.578" fill="currentColor">
  <path d="M6.988 16.599C2.132 16.599 0 28.032 0 36.802c0 8.77 2.275 19.938 6.456 19.938 2.926 0 8.547 0 10.878 0 6.448 0 16.465 10.998 21.532 15.219 3.643 3.035 9.998 1.95 9.998-4.501l0.013-61.602c0-6.22-6.412-7.249-10.007-4.081-5.262 4.636-14.946 14.823-21.267 14.823-2.044 0-7.4 0-10.615 0Z"/>
  <path d="M69.578 13.668c-1.904-1.882-4.93-1.882-6.842 0.013-1.888 1.891-1.888 4.943 0.01 6.841v-0.01c4.173 4.175 6.75 9.907 6.75 16.266 0 6.347-2.568 12.065-6.74 16.231-1.908 1.904-1.908 4.953-0.01 6.864 0.934 0.939 2.171 1.416 3.416 1.416 1.247 0 2.522-0.477 3.428-1.416 5.898-5.905 9.566-14.093 9.566-23.079 0-9.028-3.681-17.228-9.583-23.126Z"/>
  <path d="M85.324 1.463c-1.97-1.951-5.094-1.951-7.057 0-1.96 1.952-1.96 5.116 0 7.058 7.242 7.239 11.752 17.204 11.752 28.254 0 11.049-4.47 20.996-11.743 28.249-1.973 1.946-1.973 5.094 0 7.054 0.942 0.965 2.252 1.467 3.538 1.467 1.279 0 2.599-0.503 3.53-1.467 9.043-9.036 14.669-21.533 14.657-35.303-0.044-13.765-5.639-26.292-14.677-35.312Z"/>
</svg>
